<svg width="151" height="177" fill="none" xmlns="http://www.w3.org/2000/svg"><ellipse cx="75.375" cy="74.4996" rx="74.5" ry="74" fill="#DFE2F6"/><path d="M104.745 175.394c10.668 2.219 30.301-.442 34.75-1.35 3.013-1.722-3.157-3.444 0-3.444s9.758-3.014 3.157-4.018c-6.601-1.005-21.197-1.247-28.7 0-13.092 2.174-22.5088-2.896-27.4568-5.29l-20.878 14.102c22.4381 1.669 32.6373-1.35 39.1278 0z" fill="#CDD1F1"/><path d="M83.5036 173.448c12.8161-2.989 13.4937-8.549 7.6204-10.836-15.9913-6.228-42.3942-11.902-74.2988-6.165-25.97856 4.67-15.933522 16.628 4.503 18.87 20.4365 2.242 49.3593 1.121 62.1754-1.869z" fill="#CDD1F1"/><path d="M19.7114 79.5447c1.7549-1.329 3.4229-1.9703 7.4087-2.3559 3.107-.3006 7.8753.036 9.29 1.2621 7.9956 6.9294 14.7083 24.1371 25.3568 33.0961 13.2882 11.179 25.1071 5.384 33.1774 19.061 3.2849 5.567 7.1237 20.46-2.0588 29.73-2.1688 2.186-3.9052 3.711-8.5226 5.512-15.9726 6.239-45.1933 7.266-60.0779-1.311-27.7583-15.996-18.1129-74.7408-4.5736-84.9943z" fill="#5EC8D3"/><path d="M76.3012 167.871c1.8314-1.6 5.2233-3.229 6.1583-7.258.935-4.029 1.9034-14.486-6.9715-17.879l18.7154-8.735 2.914 1.694c2.1854 6.981 2.8559 17.487-4.2319 24.642-2.1688 2.186-3.9052 3.711-8.5226 5.513-1.9274.752-5.7968 1.429-8.0617 2.023zM33.1862 86.0989c-7.324-.9012-9.809 9.9179-10.229 12.2565-2.867 15.9616 2.69 16.2096 8.5513 21.5126 7.4105 6.704 10.4773 7.022 14.8767.807 5.7266-8.09 4.6309-16.482-2.4754-25.6976-2.063-2.6751-7.1119-8.4341-10.7236-8.8785z" fill="#229AA0"/><path d="M39.2109 92.9844c-.3739-3.2452-1.4924-8.5763-3.4018-10.9066M28.7652 82.7115c-.7566 5.297-1.6471 9.9992-.5901 14.5183 4.1714 5.9482 6.1843 13.9852 6.1843 18.4832" stroke="#D9F9F9" stroke-width="2" stroke-linecap="round" stroke-linejoin="round"/><path d="M39.3189 121.303c-1.6366 1.462-.7005-4.221.8595-2.677.6301.623 1.2359 1.295 1.8117 2.019l-2.6712.658zM38.0235 115.037c-2.3261.87.2888-3.379 1.1159-1.037.0703.199.1399.399.2087.602l-1.3246.435zM64.0229 168.926c9.9904-.851 15.3406-2.025 25.063-5.572v1.234c-13.817 8.255-43.5499 8.115-65.7446 1.609v-2.256c1.4342.437 3.498 1.189 6.1215 1.644 11.6133 1.889 21.0496 4.492 34.5601 3.341z" fill="#0D89BA"/><path d="M71.1328 106.523s-.8395 3.237-1.749 3.323v-2.274c.6414-.241 1.2338-.597 1.749-1.049z" fill="#E8B536"/><path d="M55.2617 82.359c-.1119.2746-.2116.5387-.2921.7853.0758-.2693.1735-.5319.2921-.7853zM59.5655 85.1691c.7538-.6122.892-3.937.9165-5.0196 1.17-.7836 1.7787-2.4486 2.2439-3.7271.1866-.5137.3373-1.0397.4513-1.5741l.9025 4.0646c.1749.6034.6995 2.7879-.4513 4.9654-.363.7581-.9029 1.4179-1.5741 1.9239-2.1198 1.5129-6.0375 1.4429-6.996-.5632-.1202-.259-.1936-.5373-.2168-.822.4844.9322 3.8285 1.4797 4.724.7521z" fill="#1B0088"/><path d="M54.9688 83.1403c-.1202.4088-.1658.836-.1347 1.261-.0036-.0087-.0083-.017-.014-.0245-.1067-.2326-.0297-.6856.1487-1.2365z" fill="#10004F"/><path d="M54.9698 83.1406c.0805-.2466.1749-.5107.2921-.7853.437-.8945 1.058-1.6866 1.8224-2.3244 1.4202.7748 2.3909.5492 2.7092.4512.2459-.0765.4788-.1897.6909-.3358-.0245 1.0826-.1627 4.4075-.9165 5.0196-.8955.7276-4.2395.1749-4.7328-.7643-.031-.425.0146-.8521.1347-1.261z" fill="#10004F"/><path d="M49.8905 71.932l1.8049-6.0952s3.4613-2.4836 5.2312-2.9348c1.2968-.3613 2.5663-.8143 3.7989-1.3555 0 0 2.6234 0 3.7096.9217-.5894-.0559-1.2786 0-1.6406-.2816v-.1504c-.3008 1.9432.9427 3.1482 1.1683 4.9322.126 1.0022.1382 2.0411.1924 3.0555-.1628.1997-.2916.4248-.3812.6663-.0147.0413.0375.5035-.0368.126-.0699-.14-.1338.0909-.1881 0l-.0874-.126c.541 1.5893.7707 3.2844 1.3117 4.8759-.1884.0838-.236.0682-.4372.1136-.475.107-.9442.0847-1.4193-.0223l.1075.0223c-.1675.6849-.5415 1.3338-.8106 1.9855-.1556.3778-.3025.7346-.4477 1.0669-1.4674.7573-2.7389 1.8295-4.2938 2.2527-.1749-.049-.3393-.0962-.4705-.1364-.1749-.056-.3218-.1015-.4407-.1469-.4967-.1942-.8745-.4565-2.494-1.2086-1.7595-.8168-1.6966-.6856-2.0324-.9025-2.4766-1.5933-2.174-6.2666-2.1442-6.6584z" fill="#F283C5"/><path d="M59.7648 81.1606c-.6996.1977-1.6283 0-2.2929-.1749 1.5548-.4232 2.8263-1.4954 4.2937-2.2527-.5614 1.2768-1.0948 2.174-2.0008 2.4276zM65.8313 67.8668c.2852 1.2804.2076 2.6161-.224 3.8538-.2961.8369-.751 1.6072-1.3391 2.2677-.0549-.6942-.1712-1.382-.3474-2.0551-.087-.3458-.1451-.6983-.1736-1.0539-.0278-.3508-.0278-.7032 0-1.054.0312-.5585.0486-.8396.1736-.8782.198-.0615.4186.5269.7121.483.1876-.0298.2449-.2916 1.1984-1.5633z" fill="#F9B7DF"/><path d="M62.9922 75.6638v.0787h-.0455c.0315-.0664.042-.0804.0455-.0787z" fill="#F283C5"/><path d="M64.8718 62.9876c.2234.318.4127.6586.5649 1.0162.2904.6856.2816 1.0634.4513 2.4835.2186 1.8225.3725 2.3717 0 2.7075-.191.1546-.4313.2353-.6769.2274l-.453.2256c-.2841.2317-.6144.3998-.9689.4932.1808-2.8374-.5549-5.6579-2.0988-8.0454l1.9239-.5247c-.1199.1222-.1883.2857-.1911.4568-.0028.1712.0602.3369.1759.4629.1158.1261.2755.2029.4462.2147.1707.0118.3395-.0424.4715-.1514l.355.4337zM64.7561 73.9386c.0892.1749.1749.327.2361.4617-.1128-.1624-.2039-.3387-.2711-.5247l.035.063z" fill="#F9B7DF"/><path d="M125.453 156.788c-1.475-1.441-2.998-2.91-4.635-4.143-1.637-1.233-3.299-2.55-4.988-3.769l2.242-5.104 15.311 15.271-.112.113-2.837 2.543c-.801-.566-1.586-1.116-2.155-1.684-1.004-1.007-1.806-2.23-2.826-3.227z" fill="#F283C5"/><path d="M128.307 162.768l-6.433-3.952c-3.484-2.916-7.237-6.041-7.637-6.297l1.596-3.638c1.69 1.225 3.346 2.533 4.989 3.77 1.642 1.236 3.16 2.702 4.634 4.143 1.02.997 1.819 2.219 2.827 3.225.568.568 1.353 1.118 2.155 1.684l-.438.392-1.693.673z" fill="#A31F81"/><path d="M74.239 118.939c-3.136-.997-5.2243-3.281-7.3458-5.678-.7748-.874-1.7647-2.293-3.0328-2.467-.202-.031-.4083-.012-.6016.054-.0612-.226-.1242-.45-.1854-.675l3.5749-6.04 2.5203 2.654 1.1666 4.683 7.8705 5.7 4.2902 2.033 4.8535-.34s1.6528.467 3.1027 1.032c2.0568.8 3.54 1.727 3.6729 1.527.0051-.012.0078-.024.0078-.037 0-.013-.0027-.026-.0078-.038-.0881.353-.2111.696-.3673 1.025-.2641.556-.4425.976-.8745 1.119-.6768.226-1.1281 0-1.8067-.451-.6786-.451-2.2562-.451-2.2562-.451l-2.0026-1.167h-5.9256c-.7678-.309-1.5741-.545-2.181-.827-1.4515-.653-2.9457-1.206-4.4721-1.656z" fill="#F283C5"/><path d="M74.0146 121.341c-2.1337-.765-4.7992-2.678-4.8534-2.71l-1.693-.902c-1.1276-1.283-2.2562-2.562-3.3861-3.837-.2763-1.018-.5533-2.035-.8308-3.051.1934-.065.3997-.084.6017-.054 1.268.175 2.2579 1.597 3.0327 2.468 2.1286 2.396 4.2169 4.68 7.3458 5.677 1.5205.451 3.0088 1.005 4.4547 1.656.5982.282 1.4132.525 2.181.828h-.5387c-2.8718.75-4.9199.425-6.3139-.075z" fill="#A31F81"/><path d="M120.305 141.589s.686 4.952.438 4.814l-3.161-2.935 2.723-1.879z" fill="#10004F"/><path d="M57.3086 80.2571l-1.7123 2.5587s-.6996 1.6388 0 2.7564c.6996 1.1177-.3113 2.2842-.3113 2.2842l-9.3483-3.3738-.2537-2.0813 3.7814-5.6807 1.5234-4.1311c.4459 1.6557 1.2405 3.197 2.3307 4.5206 1.0901 1.3236 2.4505 2.399 3.9901 3.154v-.007z" fill="#F283C5"/><path d="M61.6138 68.5945c.1607.0108.3188.0462.4687.105.0878.0346.1721.0774.2519.1276.3078.1749.3795.4933.2798.6314-.0574.0517-.1278.0866-.2036.1011-.0759.0145-.1542.008-.2266-.0189 0 0-3.2846-.6401-4.6506.2571.3129-.2861.6622-.5295 1.0389-.7241.9407-.4679 2.0025-.6352 3.0415-.4792z" fill="#1B0088"/><path d="M62.2656 71.4625c-.0385-.0909-.4932-1.1613-1.5741-1.3624-.787-.147-1.6773.2151-1.9239.71-.0231.0425-.0384.0887-.0454.1365-.056.453.7905 1.0039 1.4621 1.1473 1.0372.2186 1.9117-.4897 2.0813-.6314z" fill="#fff"/><path d="M60.5029 72.0719c-.4298 0-.7783-.3485-.7783-.7783 0-.4299.3485-.7783.7783-.7783.4299 0 .7783.3484.7783.7783 0 .4298-.3484.7783-.7783.7783zM65.0065 68.8718c.0811-.0311.1648-.0548.2502-.0709.1437-.0294.2912-.0363.4371-.0205.0728.0021.3863.0016.4807.0088l.0041.7711c-.5393-.0371-1.1455-.023-1.1455-.023-.069.0128-.1401.0063-.2056-.0188-.0654-.0251-.1226-.0679-.1653-.1235-.0748-.1413.0406-.4094.3443-.5232zM62.9361 75.2161l.9689-.1994s.0717-.3166-.3201-.4145l-.6996.3987.0508.2152z" fill="#1B0088"/><path d="M59.9666 76.9755c.0105-.0578.3865-.6437.2256-.4513-.077.091.7101-.2658.7975-.2588.356.0115.7089.0704 1.0494.1749.2851.1136.4565.1749.5247.3498.0455.1154.0123.1976-.1749.6996-.0969.2989-.2138.5911-.3498.8745-.1749.3218-.2518.4879-.3498.5246-.5771.2204-1.9064-.9706-1.7227-1.9133z" fill="#A31F81"/><path d="M63.1562 78.1451s-2.2527-.2186-3.302-2.1425l3.302 2.1425z" fill="#1B0088"/><path d="M63.1562 78.1451s-2.2527-.2186-3.302-2.1425" stroke="#1B0088" stroke-miterlimit="10" stroke-linecap="round"/><path d="M57.082 80.935c-1.6148-.6539-2.9955-1.7786-3.9625-3.2278-.9669-1.4492-1.4754-3.1559-1.4593-4.898l-.4478 9.051c-.5842.7486-.6401 1.7018-.2256 2.237.5439.6996 1.9903.8098 2.9348-.2256l3.1604-2.9366z" fill="#A31F81"/><path d="M61.5977 63.3199c-.4334.8119-.9618 1.5693-1.5741 2.2562-1.6651 1.854-2.9418 2.0394-4.6104 3.9493-1.1174 1.2693-1.9335 2.7748-2.3874 4.4039-.5964 2.4486.6752 4.8587 1.1282 5.644-.4775-.3847-2.7442-2.2964-3.1482-5.644-.035-.2973-.418-4.0506 2.0148-6.5464.8028-.8238 2.2737-1.4517 5.191-2.7092 1.394-.5912 2.5675-1.0442 3.3861-1.3538z" fill="#A31F81"/><path d="M114.196 152.602l-.286-.322.481-.12-.195.442zM65.3233 114.686s4.8 5.899 10.5577 6.615c5.1316.638 11.0511 2.44 15.4743 2.317l-2.4486 2.017 1.9868.874h-.0122l4.9147 2.173 11.061 12.417 4.855 5.978c1.256 1.547 1.551 2.958 1.299 4.198l-15.7406-17.633-32.4788-7.199-11.1324-9.389s9.8591-1.691 11.6641-2.368zM100.675 130.285l-5.1845-7.057c2.9418-.074 5.3855.764 9.0005 3.216 4.628 3.148 15.802 15.216 15.802 15.216l-2.484 3.838-9.01-6.748-8.124-8.465z" fill="#1B0088"/><path d="M111.712 147.08l-4.854-5.98-11.0603-12.418-4.8972-2.169 5.0109-2.459c8.6516 5.507 16.2256 12.547 22.3506 20.773l-3.871 7.346-.481.121-.897-1.004c.252-1.253-.044-2.664-1.301-4.21z" fill="#10004F"/><path d="M95.9098 124.056l-5.0126 2.459-1.9869-.874 2.4486-2.017c.5053-.011 1.0095-.055 1.5094-.129.8679-.144 1.7443-.231 2.6235-.261l5.1842 7.057-4.7662-6.235z" fill="#10004F"/><path d="M55.7284 117.054c-.604.753-1.2063 1.505-1.8068 2.258l8.5789 4.289 28.2217 2.842.1749.075 4.8972 2.162 11.0607 12.418c.407.479 1.07 1.24 1.924 2.144 4.087 4.355 6.996 6.137 6.546 7.223-.241.585-1.126.188-2.258.905-1.901 1.203-1.763 3.814-2.483 6.321-.525 1.796-3.554 5.534-8.983 8.596-2.0705-2.596.328-7.016-1.7403-9.613-1.3992-.647-3.3738-1.554-5.7559-2.623-.5189-2.681-7.6396-10.41-11.0624-11.718-2.3297-.887-5.5426-.277-9.4813-1.412l-19.6045-1.941s-7.8232-1.106-10.8997-3.703c-3.0765-2.597-4.4862-13.866-4.4862-13.866 5.9441-.354 11.7668-1.835 17.1577-4.364v.007z" fill="#1B0088"/><path d="M67.1653 114.053s1.3764 1.935-.9455 2.084c-2.322.148-1.4201.935-3.8956.935-2.4755 0-6.5594.468-6.5594.468l-.6123-.234s.1151.553 1.8422-.496 3.8275-2.013 5.2545-1.926c1.427.088 5.0277-.961 4.9161-.831z" fill="#10004F"/><path d="M98.168 129.244c-.3271-3.402-6.4258-4.534-8.9794-4.955-3.8023-.628-7.5399-1.144-11.4629-1.14-5.8766 0-12.6102-.383-17.726-3.449-2.4118-1.445-6.6462-4.445-9.0668-1.529 2.8527 4.446 10.1897 4.995 14.8665 6.043 3.9335.883 7.7917 2.078 11.748 2.91 6.7388 1.418 13.7313.687 20.4037 1.894" fill="#10004F"/><path d="M95.0469 119.912c-.8987-.229-1.8206-.354-2.7477-.374-1.3537 0-2.5588.148-3.0852.187-.5265.038.4652.766.4652.766l2.6235.175 2.2405.012.5037-.766zM53.293 86.6381c-.8907.3233-1.8061.5742-2.7371.7503-.5016-.2845-.9653-.6312-1.38-1.0319-.6626-.6465-1.1967-1.4126-1.5741-2.2579l7.6387-.6615s.5623.1595 1.1657.4358c-.4407 1.0827-1.8014 2.272-3.1132 2.7652z" fill="#F283C5"/><path d="M57.309 85.925c.0463.2155.0463.4385 0 .6541-.0455.1635-.1221.3167-.2256.4512-.99 1.3433-2.258 1.5741-2.258 1.5741-1.0536.1127-2.1187-.0342-3.1025-.4278-.9838-.3935-1.8563-1.0219-2.5415-1.8301.2851.1486 2.0656 1.0494 4.1171.2816 1.6738-.6227 2.9086-2.4014 3.108-2.7652.7748.5282.8028 1.5968.9025 2.0621z" fill="#F9B7DF"/><path d="M54.375 83.4172c-.5561.5741-1.0816 1.1772-1.5741 1.8067-.885 1.1246-1.1736.7346-1.3555.6769-.5666-.1837.6209-4.6121.6209-4.6121l2.3087 2.1285z" fill="#A31F81"/><path d="M91.3941 125.763l.8587-1.296 10.5412-15.916c.301-.527.932-1.226 1.418-1.59.485-.364.815-.386 1.405-.526l10.27-1.924s1.574-.452.451 1.355l-10.609 16.049-14.3349 3.848z" fill="#2D34CE"/><path d="M71.3027 125.409v1.018l20.0924-.66.8588-1.296-20.9512.938z" fill="#2D34CE"/><path d="M105.176 106.523c-.231.059-.918.284-1.138.376-.406.171-.786.399-1.128.677-3.8478 5.632-7.4507 11.266-11.288 16.897.3008.013.376.023.6769.034l11.5131-17.156 1.364-.828z" fill="#1B0088"/><path d="M38.2294 91.7749c.4705-.4285 1.3992-.9637 1.7088-1.5234.6541-1.2033.5474-2.8421 1.3135-4.1836.8518-1.4866 2.2125-2.4486 3.0747-3.888l-.1556-.3131c.6243.0333 1.2348.1749 1.5111.5387.6768.9042 4.7782 3.8373 4.7782 3.8373 1.1786.7166 2.4605 1.2475 3.8006 1.5741.8255.1941 1.2942.077 1.693-.1137.9515-.4512 1.2715-1.5006 1.3537-1.8049 0-.0875.049-1.4762-.9024-2.0324-.1979-.1138-.1497-.3204-.377-.3413 0 0 1.1465-.6329 3.3013.1367.928.3113 1.8232.7132 2.6724 1.1998 1.1019 1.3607 1.7158 3.3143 2.3122 5.6807 1.1089 4.4022.9987 6.8526 2.0008 12.6152.2711 1.552.7276 3.871 1.4954 6.683.2047.525.5947 1.737.1749 2.973-.1259.373-.3498 1.006-.857 1.19-.2553.091-.3927.108-.781.216-.3178.091-.6541.144-.9137.349l-3.1605.902-2.4835 1.13-8.5788 2.709c-3.6119 1.632-7.5689 2.353-11.5242 2.099l.0105-.075c-.1224.066-2.8788 1.495-4.5141.225-.9917-.769-1.0599-2.13-1.1281-3.611-.1749-3.605 1.3502-4.423 1.0231-7.813-.0682-.717-.1661-1.275-.3497-2.989-.084-.747-.1627-1.688-.2152-2.973-.0817-1.58-.0817-3.162 0-4.7418.0542-.9567.14-1.8539.2449-2.6847.4582-.9165.8745-1.8959 1.3992-2.6235.6074-.8523 1.302-1.6389 2.0725-2.3471z" fill="#FCE790"/><path d="M36.565 89.6484c.5055-1.7665.7801-2.6445 1.0861-3.3231.4513-1.0127 1.3258-2.4818 3.1604-3.9492l1.7298-.3043c.6071-.1025 1.2229-.1435 1.8382-.1225l.1557.3131c-.8623 1.4359-2.223 2.4014-3.0748 3.888-.766 1.3415-.6593 2.9733-1.3135 4.1836-.3043.5597-1.2382 1.0949-1.7087 1.5234-.7769.7157-1.4762 1.5112-2.0866 2.3734-.5247.7205-.9322 1.7-1.3992 2.6234.1785-1.4125.4361-2.8138.7713-4.1975 0 0 .4023-1.4849.8413-3.0083zM52.8117 112.272l6.1922 4.57-1.4866.612-7.2801-2.193-.3761-4.187 2.9506 1.198z" fill="#E8B536"/><path d="M64.3117 90.5476c-.2317-1.0977-.5547-2.1742-.9654-3.2182-.3178-.886-.7722-1.7169-1.3467-2.4626 4.408 6.5646 7.509 13.9175 9.1332 21.6562-.4215.358-.8929.652-1.3992.874-.7979.347-1.6634.509-2.5325.476-.5807-2.587-.9322-4.692-1.1404-6.072-.3393-2.2514-1.0214-7.4074-1.749-11.2534z" fill="#F9EFC5"/><path d="M50.4219 111.522c-2.7372.644-3.6956.299-4.0402-.175-.1372-.228-.3062-.436-.502-.617-.2448-.212-.6996-.371-1.7787-.35-1.5741.451-2.7092.902-2.7092.902.0228.116.1924 1.097-.4862 1.816-.2658.277-.4189.068-.7932.153-.7626-2.822-1.7026-5.277-2.4442-8.167-.6214-2.428-1.2237-4.835-1.8067-7.2234-.0671-1.341.1247-2.6824.565-3.9509.0489-.2641.3987-1.9816 2.0323-2.9348 2.0498-1.1981 4.1836-.0578 4.2885 0 .9947.4812 1.9284.7595 2.6995 1.551 2.9383 3.0258 3.6214 8.3901 3.6214 8.3901.7143 3.497 1.1668 7.042 1.3537 10.606zM56.7214 97.6002c-.6116.5726-1.3871.9426-2.2193 1.0588-.062.0081-.1191.0129-.452.0227l-5.0163-.5578.2105.6275c.1754 1.4186.4752 2.8186.8959 4.1846.6837 2.199.7898 4.919.7898 4.919l4.9314 1.988 2.9667-3.453c-.1778-.688-.4781-1.753-.9481-3.034-.4145-1.135-.6299-1.529-.842-2.302-.3024-1.1252-.4095-2.2931-.3166-3.4538z" fill="#E8B536"/><path d="M37.5772 91.653s-1.6012 3.6154-1.6012 4.9709c0 1.3555 1.3537 4.7571 1.3537 4.7571l3.6117 13.34-2.4818-3.612-3.1989-8.955-.3953-4.6276s.2632-4.037 2.7118-5.8734z" fill="#BC6C15"/><path d="M36.2561 121.737c-.5808-.556-1.0982-1.141-1.5477-1.749-.857-1.16-.7189-1.565-.7189-3.582l.7189-6.325c-.2769-1.242-.544-5.126-.544-8.67 0-1.4992.8724-6.3801.8724-6.3801l1.9085 12.8681-.7279 6.822c1.356 2.674 3.919 4.991 7.3256 6.622l-7.2869.394zM63.0649 110.17l-3.5374-15.892s.83 9.231.83 9.852c0 .621 1.9239 11.344 1.9239 11.344l.919-.121 1.6658-.349 1.6572-.883-2.0988-1.391-1.3597-2.56z" fill="#E8B536"/><path d="M56.2748 98.649l-1.4699.6408-5.2471-.4272.2098 1.2834 5.0731.427 1.5382-.7484-.1041-1.1756z" fill="#F9EFC5"/><path d="M49.1211 101.274c-.8976-5.2468-3.3257-9.3531-6.9548-10.1507-1.9047-.418-3.6642.1749-4.836.7608.3668-.4892.8352-.8931 1.373-1.184 2.1092-1.1211 4.5736.0542 5.2872.3935 3.0362 1.4499 4.6059 5.2834 5.1306 10.1804z" fill="#BC6C15"/><path d="M57.1663 83.2572c.1749.1277 1.4526 1.1739 1.4963 2.6431.042 1.3309-.843 2.2037-1.24 2.5955-.7112.6802-1.6213 1.1153-2.5973 1.2418-.8338.1287-1.6865.0512-2.4835-.2257-1.2577-.6629-2.4649-1.4176-3.6117-2.2579-1.6633-1.2539-3.2463-2.6109-4.7398-4.0629v-.0263c0-.0105-.7625-.5701-1.8084-1.3274l2.4835-.2274s.2799 0 1.1281.6786c.6227.5579 2.8334 2.522 4.7416 3.8373.5005.341 1.0268.6428 1.5741.9025 1.0039.4774 1.5426.7345 2.2579.6768.1662-.0122 1.3222-.1032 1.9239-1.0144.5527-.843.3716-2.0813-.3927-3.0485l.1791-.1688.7391-.2163h.3498z" fill="#E8B536"/><path d="M61.4466 122.171c-3.1482-.084-6.1967-.224-9.3414-.586-1.7315-.2-4.633-.245-5.8643-1.688-.976-1.144-1.5881-3.814-2.4031-5.222-.6174-1.064-1.4727-3.357-2.5553-4.1-.3959-.241-.8587-.349-1.3205-.308.2973-.393.9287-.754 2.111-1.002 4.2885-.902 8.4267.7 8.3952 3.283v2.587l18.4728 6.056 5.9834-.075 3.3825-1.805c2.4279-.325 4.8981-.094 7.2233.677l3.6117 3.16c.021.011.4705.273.4512.677-.0056.11-.0397.216-.099.308-.0592.092-.1414.167-.2385.217-.7941.35-2.258-1.317-2.258-1.317l1.5741 2.258c.0093.007.0171.016.0228.026.0057.011.0093.022.0105.033 0 .146-.6577.305-1.0494.28-.5947-.038-.8186-.516-1.6563-1.381-.3498-.368-2.5203-2.118-2.5203-2.118l-2.7092-.226 2.2579.902 2.7092 2.033c.0165.206-.0283.412-.1289.593-.1005.181-.2522.328-.436.423-.2402.101-.5087.111-.7557.028-.247-.082-.4557-.251-.5875-.476l-1.9239-1.24h-2.0306l-2.2912 1.3c-1.9816-.766-4.0227-1.487-5.9798-1.79-3.3073-.517-6.7126-1.418-10.0567-1.507z" fill="#F283C5"/><path d="M69.9563 125.932s-11.1061.638-12.4983 0c-1.3922-.639-6.996-1.732-6.996-1.732l-5.0039-.941-4.7415-8.766c-.2623-.878-.5258-1.756-.7905-2.634.0433-.014.0836-.037.1189-.066.4093-.339-.0524-1.453-.0839-1.527.4617-.041.9246.067 1.3205.308 1.0826.743 1.9379 3.036 2.5553 4.1.815 1.399 1.4271 4.078 2.4031 5.222 1.2243 1.443 4.1328 1.488 5.8643 1.688 3.1482.362 6.1932.502 9.3414.586 3.3441.089 6.7494.99 10.055 1.504 1.9536.302 3.9982 1.023 5.9798 1.789l-.3061.175-7.2181.294z" fill="#E55CB4"/><path d="M50.5352 111.86c-.2834-.288-2.7722-2.749-6.3209-2.258-1.6436.248-3.055 1.211-4.1898 2.426-.1035-.135-.2805-.455-.3261-.619-.0548-.222-.0548-.455 0-.677.0982-.453.3094-.874.6139-1.224 1.1281-1.17 3.1884-.934 4.3532-.801 1.0494.119 1.749.381 3.1605.902 1.4114.522 2.0988.859 2.4835 1.574.1097.213.1858.441.2257.677zM121.193 165.363c-.411-.264-.591-.644-1.384-1.261-.474-.37-.988-.686-1.532-.943-2.51-.909-4.899-2.122-7.115-3.611-1.198-.815-3.97-2.834-3.975-2.836.404-1.091.892-2.273 1.48-3.498 1.924 1.256 3.673 2.886 5.649 4.023 2.427 1.391 4.341 3.215 6.657 4.75 1.292.859 2.714 1.531 4.082 2.286-.083.214-.175.425-.249.639-2.023.977-3.048.815-3.613.451z" fill="#A31F81"/><path d="M109.037 152.464c.397-.79.799-1.535 1.207-2.235l.117.234c1.272 1.347 3.108 1.909 4.471 3.101 1.399 1.225 2.464 2.577 4.043 3.659 2.235 1.532 4.481 3.626 7.098 4.709-.307.781-.612 1.561-.915 2.342-1.368-.756-2.798-1.428-4.082-2.286-2.316-1.536-4.229-3.36-6.657-4.751-1.978-1.133-3.729-2.763-5.649-4.022.119-.245.245-.495.367-.751z" fill="#F283C5"/><path d="M114.828 153.57c-1.363-1.193-3.199-1.749-4.47-3.101l-.118-.235c.303-.524.606-1.023.906-1.493 0 0 7.925 7.109 11.019 9.014 3.094 1.905 3.823 4.11 3.823 4.11l-.028.072c-2.623-1.083-4.862-3.176-7.097-4.708-1.571-1.086-2.629-2.435-4.035-3.659z" fill="#F9B7DF"/><path d="M38.5736 121.798c.5247-.092 2.2273-.077 4.7625-.369 1.6114 1.851 4.8414 7.863 7.0939 8.836l13.427 4.854 9.3694.563h13.1262l23.2794 11.809 5.696 2.973c-1.715.645-3.315 1.56-4.741 2.71-.908.736-2.306 1.887-3.386 3.847-.564 1.016-.836 1.525-.903 2.257-.157 1.71-.843 2.623-1.298 4.064-.138.422-3.18 2.628-3.487 2.949l-20.1673-23.787s-6.0258 1.005-11.8447-.216c-5.5653-1.169-6.8071.283-13.0929-.904-2.6744-.506-5.2858-1.3-7.7883-2.37-1.3992-.287-3.6484-.973-5.5303-2.821-1.3852-1.359-2.2929 2.172-3.3878-2.881-1.254-5.791-1.749-11.396-1.1281-11.514z" fill="#10004F"/><path d="M54.8478 58.5865c-1.2661-.5214-2.6032-.8504-3.9667-.976.4009-.2235.8137-.4249 1.2365-.6034 1.0354-.299 5.1071-1.3379 9.0108.8605.544.3061 4.9322 2.7757 4.9847 6.5885.0048.5331-.0712 1.0638-.2257 1.5741-.059-.3689-.1977-.7206-.4064-1.0305-.2088-.3098-.4825-.5706-.8021-.764-.5504-.3082-1.1969-.3975-1.8102-.2501-.1797-.2334-.3718-.457-.5755-.6698-1.8906-1.9519-4.9356-3.7097-7.4454-4.7293z" fill="#1B0088"/><path d="M55.418 72.5895s-1.1281 1.1281-2.0306 0" stroke="#A31F81" stroke-width="2" stroke-miterlimit="10" stroke-linecap="round"/><path d="M63.787 71.1126c.0075-.0446.0235-.0874.0472-.1259.2501-.4408 1.0704-.7993 1.8208-.6314.142.0321.2791.0833.4075.1521.0259.3205-.0125.6429-.1128.9483s-.2606.5878-.4714.8305c-.128-.0041-.2552-.0217-.3795-.0525-.6122-.1574-1.3765-.7031-1.3118-1.1211z" fill="#fff"/><path d="M65.2113 72.2031c-.399 0-.7224-.3234-.7224-.7223 0-.399.3234-.7224.7224-.7224.3989 0 .7223.3234.7223.7224 0 .3989-.3234.7223-.7223.7223zM63.6309 70.5533c.056.0927.119.2117.1889.3498.0708 1.0438.3801 2.0574.9043 2.9628.0671.186.1583.3624.2711.5247.0682.0927.3777.5422.2168.892-.0514.0879-.1214.1634-.2051.2214-.0837.058-.179.0971-.2793.1144l-1.3223-4.8499.2256-.2152z" fill="#1B0088"/><path d="M104.344 115.909c-.368-.232-.154-1.232.478-2.232.632-1.001 1.442-1.624 1.809-1.392.368.233.154 1.232-.478 2.232-.632 1.001-1.442 1.624-1.809 1.392z" fill="#CDD1F1"/><path d="M42.2109 85.0084s-1.7657.6894-2.0988 5.0721" stroke="#E8B536" stroke-width="2" stroke-miterlimit="10" stroke-linecap="round"/><path d="M40.3673 79.796c2.683-3.7166 3.533-1.7665 3.5592-5.4499.3026-5.5863.9532-13.789 6.7301-16.7378 2.0231-.1918 4.0635.0644 5.9763.7503 4.1014 1.4849 6.2737 4.5194 6.996 5.644-1.6915.145-3.2834.8611-4.5141 2.0306-.8063.5526-2.0744 1.3992-3.6869 2.3716-2.1775 1.3152-2.2947 1.2435-2.634 1.693-.9707 1.2838-.948 3.1167-.9042 6.7721.0258.5358-.0148 1.0727-.1207 1.5986-.1469.6874-.1706 1.4374-.286 2.0775-.0666.388-.0282 1.1814 0 1.5741.0909 2.3559 1.3389 3.8114.6323 4.908-.7783 1.2015-3.9405.5544-5.2155-.1452-.9549-1.1771-1.6458-2.4801-1.289-4.1713.2449-1.1649 1.0302-2.0149 1.6336-2.9891.6541-1.0494.9164-2.3506.9042-3.5994.0096-.1047.0096-.2101 0-.3148v.3148c-.0805 1.233-1.4517 2.3821-2.1775 3.1867-1.2103 1.3432-2.9628 2.2527-4.0227 3.7096-.4915.6768-.6489 1.289-.5754 1.8504-2.3594-.6419-3.2374-2.7109-1.0057-5.0738z" fill="#2D34CE"/><path d="M48.149 76.124v-.3148c.0097.1047.0097.2101 0 .3148z" fill="#10004F"/><path d="M41.9557 83.0219c1.0494-1.4569 2.7984-2.3664 4.0227-3.7096.7258-.8046 2.0987-1.9537 2.1774-3.1867.0123 1.2488-.2501 2.543-.9042 3.5994-.6034.9742-1.3887 1.8242-1.6335 2.9891-.3498 1.6912.334 2.9942 1.289 4.1713-.1754-.0859-.3328-.2047-.4635-.3498-.2151-.2618-.4546-.5025-.7154-.7188-.1712-.1412-.3606-.2589-.5631-.3498-.8378-.3865-1.0617-.098-2.8491-.4303-.3145-.0324-.6257-.0909-.9305-.1749-.0787-.5527.0787-1.163.5702-1.8399z" fill="#1B0088"/><path d="M52.3804 71.2513c-.6033-1.2843-.3928-2.6541.4701-3.0594.863-.4053 2.0516.3072 2.6548 1.5916.6033 1.2843.3928 2.6541-.4701 3.0594-.8629.4054-2.0515-.3072-2.6548-1.5916z" fill="#F283C5"/><path d="M54.7359 70.0263l-.7503.3498.4232.815c.0137.0263.022.055.0246.0845.0026.0296-.0007.0593-.0097.0876-.0089.0282-.0233.0545-.0424.0771-.019.0227-.0424.0414-.0687.0551-.0263.0137-.055.022-.0845.0246-.0296.0026-.0593-.0007-.0876-.0097-.0282-.0089-.0544-.0233-.0771-.0424-.0227-.019-.0414-.0424-.0551-.0687L52.8767 69.22c-.0187-.0359-.0274-.0762-.0251-.1166.0022-.0404.0153-.0795.0378-.1131.0226-.0337.0538-.0606.0903-.078.0365-.0175.0771-.0248.1174-.0211.0369.0037.0723.0167.1029.0378.0306.0211.0554.0496.072.0828l.5002.9637.766-.3603c.0359-.0172.0758-.0244.1155-.0209.0493.0043.0958.0248.1323.0582.0365.0334.0611.0779.0698.1266.0088.0487.0013.099-.0214.143-.0226.044-.0591.0794-.1038.1007l.0053.0035z" fill="#1B0088"/><path d="M127.059 152.737c-1.174 2.061-2.855 3.787-4.885 5.014l6.281 6.452 5.104-5.334-6.5-6.132z" fill="#DFE2F6"/><path d="M149.582 167.434l-.951-.525s-5.149 2.29-8.27 1.462c-3.12-.827-5.563-.029-5.563-.029l-9.036-1.875-2.612-.936-.016.488s2.086 3.061 5.771 2.956c3.686-.105 10.93.603 12.13.874 1.2.271 6.729-1.413 6.729-1.413l1.399-.612.419-.39z" fill="#B9AEFC"/><path d="M124.166 159.824s1.186.77 1.77.85c.585.081 1.819.48 3.101.728s2.645-2.085 3.561-3.106c.917-1.022 2.767-.824 2.767-.824l3.045 3.313.142.091c.584 1.638 1.182 3.272 2.448 4.176.927.665 2.059.831 3.073 1.335.875.437 1.435 1.144 2.052 1.775-1.661.322-3.35.483-5.042.481-1.692-.051-5.574.322-8.702-.261-3.127-.582-3.596-1.086-6.614-1.91-3.019-.823-2.512-.32-2.613-.935-.102-.616 1.012-5.713 1.012-5.713z" fill="#401279"/><path d="M144.066 166.387c-1.015-.504-2.146-.67-3.073-1.335-1.261-.904-1.859-2.538-2.449-4.176.525.335 2.394 1.547 3.323 2.397 1.1.994 1.737 1.291 3.911 1.356 2.174.065 2.849 1.796 2.835 2.286-.014.49-1.721.925-2.212 1.156-.097.039-.196.069-.298.091-.601-.631-1.163-1.338-2.037-1.775z" fill="#885AF5"/><path d="M123.134 166.026l-.579 4.262 3.933.85.964-1.11c2.127.628 3.948 1.033 5.315 1.299 2.517.49 4.57.875 7.273.782 1.114-.039 2.224-.156 3.323-.35l3.789-.7 2.829-.925c.173-.554.191-1.146.051-1.71-.091-.355-.245-.69-.455-.99l-.851.565-1.574.524s-3.118.889-5.213.854c-.931-.016-4.073.385-8.138-.245-2.477-.385-4.318-.96-6.482-1.633-1.726-.541-3.157-1.069-4.185-1.473z" fill="#401279"/><path d="M135.846 164.367c.051-.005.098-.027.135-.063.036-.036.059-.084.065-.135.158-1.688 3.257-2.289 3.287-2.303.059-.011.112-.045.145-.095.034-.049.047-.11.036-.169-.011-.059-.045-.111-.095-.145-.049-.034-.11-.047-.169-.036-.141.028-3.466.683-3.654 2.707-.005.06.013.119.051.165.038.046.093.075.152.081.016-.001.032-.003.047-.007zM136.716 165.258c.051-.005.099-.028.136-.064.036-.036.06-.083.066-.134.156-1.687 3.257-2.29 3.287-2.303.03-.006.057-.017.082-.034.025-.016.046-.037.063-.062.017-.024.028-.052.034-.081.006-.029.007-.059.001-.088-.006-.03-.017-.057-.033-.082-.017-.025-.038-.046-.062-.063-.025-.017-.052-.028-.082-.034-.029-.006-.059-.007-.088-.001-.141.028-3.464.683-3.652 2.707-.005.059.013.119.051.165.038.046.093.075.152.08.015 0 .03-.002.045-.006zM137.854 166.013c.051-.005.098-.027.135-.063.036-.036.059-.084.065-.134.156-1.689 3.256-2.3 3.287-2.305.059-.012.111-.046.145-.095.034-.05.047-.111.036-.17-.011-.059-.045-.111-.095-.145-.049-.034-.11-.046-.169-.035-.142.027-3.466.683-3.654 2.707-.005.059.013.119.051.164.038.046.093.076.152.081.016.001.031-.001.047-.005z" fill="#10004F"/><path d="M135.188 158.156c-.802-.028-1.611-.16-2.411-.051-.731.101-1.479.488-1.617 1.278-.081.455.061 1.267.592 1.414.284.076.537-.153.709-.35.329-.376.544-.843.792-1.272.227-.428.534-.809.904-1.121.378-.262.79-.47 1.225-.619.738-.299 1.485-.539 2.294-.471.383.025.757.126 1.1.298.342.171.648.409.898.699.409.494.998 1.484.465 2.083-.572.642-1.723.175-2.332-.138-.942-.496-1.672-1.297-2.579-1.845l.395-.227c.115.885.684 1.691 1.196 2.394.546.75 1.158 1.457 1.651 2.244.175.294-.255.525-.453.266-1.049-1.399-1.84-3.022-3.106-4.261l.411-.052c-.274.385-.262.916-.253 1.369.01.506.07 1.013.05 1.518-.008.502-.15.992-.411 1.421-.301.433-.701.787-1.168 1.033-.06.032-.13.04-.195.021-.066-.018-.121-.061-.156-.12-.034-.059-.044-.128-.028-.194.016-.066.057-.123.115-.16.43-.218.793-.55 1.049-.96.211-.42.304-.89.271-1.359-.012-.5-.063-1-.052-1.502 0-.451.054-.953.325-1.333.021-.034.049-.063.083-.084.034-.022.071-.036.111-.041.04-.005.08-.001.118.012.038.012.072.033.101.061 1.299 1.269 2.109 2.924 3.188 4.372l-.453.266c-.524-.827-1.166-1.574-1.733-2.358-.547-.764-1.062-1.598-1.186-2.546-.026-.203.242-.32.396-.228.809.492 1.476 1.181 2.273 1.676.378.244.796.418 1.235.514.212.04.57.088.736-.096.195-.219 0-.642-.115-.854-.175-.366-.437-.684-.763-.927-.598-.394-1.329-.537-2.032-.397-.385.069-.761.183-1.119.34-.424.175-.875.322-1.237.605-.787.608-1.018 1.679-1.684 2.396-.45.484-1.123.651-1.639.175-.481-.45-.624-1.214-.49-1.837.188-.874.975-1.399 1.805-1.574.901-.175 1.812-.029 2.72 0 .336.011.338.536 0 .525l.004-.003z" fill="#10004F"/><path d="M120.098 156.282c-1.74 2.081-3.911 3.762-6.363 4.925 0 0 6.133 5.042 7.462 4.157 1.798.184 3.86-1.089 3.86-1.089s1.175-2.207.78-3.091c-.396-.883-2.003-2.212-2.003-2.212l-3.736-2.69z" fill="#DFE2F6"/><path d="M141.57 171.709c.051-.193.057-.395.018-.59-.039-.196-.123-.38-.244-.538-.112-.133-.249-.242-.405-.319-.155-.078-.324-.123-.498-.132-4.366 1.284-8.927 1.778-13.467 1.457l-9.562-2.813-2.032-.451v1.807c1.371.565 3.372 1.338 5.851 2.098 2.396.742 3.627 1.116 5.212 1.282 2.315.242 4.022-.054 6.646-.5.864-.148 7.066-1.663 7.066-1.663l1.415.362z" fill="#B9AEFC"/><path d="M115.348 169.635c-.064 1.368.098 2.51.035 3.878l4.063.902.373-1.164c6.193 1.972 12.696 2.397 18.906.839l3.093-.874c.259-.415.106-2.113-.411-2.608-6.879 3.435-18.206 2.389-26.059-.973z" fill="#401279"/><path d="M116.543 163.415c.639.59 1.4 1.033 2.228 1.298.46.147 1.399.446 2.484.226 1.969-.404 2.95-2.25 3.109-2.564.91.638 1.763 1.296 1.992 2.273.413 1.772-1.301 2.274-.591 3.939.849 1.99 4.516 2.961 7.829 3.248h-.481c-1.653-.039-5.44.35-8.499-.201-.907-.161-1.588-.319-2.172-.479-2.116-.581-2.18-.569-4.497-1.23-1.645-.471-2.424-.979-2.56-1.602-.028-.122.01.114 0-.903 0-.557-.017-.659 0-.904.031-.383.107-.762.226-1.128.215-.698.529-1.363.932-1.973z" fill="#401279"/><path d="M125.763 168.587c-.71-1.672 1.004-2.167.591-3.939-.229-.979-1.082-1.637-1.992-2.274.142-.174.277-.349.403-.488.89-.991 2.697-.811 2.697-.811l2.994 3.183s2.328 1.431 3.407 2.384c1.079.953 1.703 1.238 3.828 1.287 2.125.049 2.799 1.719 2.781 2.192-.017.472-1.939.89-2.416 1.114-.435.204-2.757.57-4.457.601-3.32-.288-6.987-1.259-7.836-3.249z" fill="#885AF5"/><path d="M127.6 167.377c.051 0 .101-.017.141-.049.04-.032.068-.076.079-.126.34-1.663 3.488-1.934 3.519-1.936.058-.007.112-.036.149-.081.037-.045.055-.103.05-.162-.004-.058-.032-.112-.076-.151-.044-.038-.101-.059-.159-.056-.144.011-3.519.303-3.923 2.295-.012.059-.001.12.032.17.033.05.084.085.142.098l.046-.002z" fill="#10004F"/><path d="M127.29 161.964c-.773-.021-1.555-.14-2.328-.037-.7.096-1.448.462-1.587 1.224-.08.441.063 1.225.579 1.363.285.077.537-.159.7-.36.315-.373.525-.83.768-1.248.222-.416.525-.783.892-1.08.385-.258.802-.464 1.24-.614.708-.292 1.444-.504 2.219-.425.377.029.745.135 1.08.31.336.175.632.417.872.709.383.481.922 1.415.385 1.975-.572.595-1.677.157-2.274-.15-.916-.473-1.635-1.239-2.52-1.763l.385-.296c.122.875.656 1.649 1.173 2.345.542.733 1.155 1.417 1.646 2.187.187.292-.254.524-.453.264-1.035-1.352-1.817-2.909-3.059-4.096l.411-.053c-.264.373-.25.875-.238 1.321.014.495.079.99.06 1.485-.007.488-.147.966-.406 1.381-.292.413-.676.751-1.123.988-.06.036-.132.046-.199.028-.067-.017-.125-.061-.16-.121-.036-.06-.046-.132-.028-.199.018-.068.061-.125.121-.161.42-.213.772-.537 1.02-.937.198-.402.284-.849.25-1.296-.014-.492-.068-.979-.061-1.471 0-.435.052-.918.311-1.284.021-.034.049-.062.083-.084.033-.022.071-.035.111-.04.039-.005.08-.002.118.011.037.012.072.033.101.061 1.275 1.224 2.078 2.816 3.148 4.197l-.453.264c-.504-.787-1.133-1.488-1.688-2.24-.524-.715-1.049-1.518-1.184-2.415-.012-.05-.01-.103.007-.151.017-.049.048-.092.089-.123.041-.032.09-.051.141-.055.051-.004.103.007.148.031.78.462 1.425 1.107 2.197 1.574.374.242.789.415 1.224.511.21.04.551.086.721-.082.169-.168.012-.577-.081-.768-.167-.355-.416-.665-.726-.906-.289-.198-.614-.337-.957-.408-.343-.071-.696-.073-1.04-.006-.379.065-.748.176-1.1.328-.415.175-.855.321-1.224.597-.772.589-.994 1.639-1.643 2.337-.448.479-1.119.633-1.625.148-.458-.442-.599-1.173-.467-1.78.189-.857.983-1.373 1.804-1.524.865-.159 1.736-.028 2.607 0 .338 0 .34.525 0 .525l.013.009z" fill="#10004F"/><path d="M128.814 168.085c.052.001.101-.016.142-.048.04-.032.068-.077.079-.127.339-1.661 3.486-1.932 3.517-1.936.03-.001.06-.008.088-.021.027-.013.052-.031.072-.054.021-.023.036-.049.046-.078.009-.029.013-.059.011-.09-.003-.03-.011-.06-.025-.087-.014-.027-.033-.05-.057-.07-.024-.019-.051-.033-.08-.042-.029-.008-.06-.011-.09-.007-.143.012-3.519.304-3.925 2.296-.012.059 0 .119.033.169.033.05.084.085.142.097.016.001.032.001.047-.002zM130.166 168.762c.051 0 .101-.017.141-.049.041-.032.069-.076.081-.126.338-1.663 3.486-1.934 3.517-1.936.03-.003.059-.011.085-.024.027-.014.05-.033.069-.055.02-.023.034-.049.043-.077.01-.029.013-.059.011-.088-.003-.03-.011-.059-.025-.085-.013-.027-.032-.05-.055-.069-.022-.02-.048-.034-.077-.043-.028-.009-.058-.013-.087-.01-.144.012-3.519.304-3.923 2.296-.012.058-.001.119.032.169.033.05.084.085.142.097h.046zM119.446 174.415l1.527-.816-1.155-.348-.372 1.164z" fill="#10004F"/><path d="M14.3977 140.18c1.8702 9.537 11.6415 18.083 29.021 22.21 11.1139 2.639 25.3067 2.469 34.369-.239 1.7345-5.972 0-10.263-.0001-15.953-.7919-1.763-1.5-3.821-7.0436-6.284-4.7959-1.765-9.9064-6.551-20.0734-8.174-6.3682-8.485-15.088-13.242-27.5773-15.869-13.0862-2.752-9.99 17.708-8.6956 24.309z" fill="#5EC8D3"/><path d="M70.8106 140.122c2.0939 2.133 4.3412 20.648-1.4442 27.827M35.4974 79.2368c1.0428.885.8317 2.3026-2.1606 2.5835-6.0194.5651-12.1526-.5913-11.7847-2.4145M42.971 167.644c1.305-3.365-3.1436-14.901-3.0435-23.444.0914-7.806 2.2745-19.45 1.1437-21.216M21.1156 80.983c-4.9104 4.5269-12.14632 23.291-10.2678 51.181.7365 10.935 8.0391 26.781 15.8397 32.256" stroke="#D9F9F9" stroke-width="2" stroke-linecap="round" stroke-linejoin="round"/><path d="M74.9453 142.313c-.9624-.755-2.2959-1.553-4.1996-2.399-1.5449-.568-3.1225-1.45-4.8912-2.439-3.5391-1.978-7.8435-4.385-14.1832-5.562 2.6572 1.038 7.3347 3.39 9.1019 4.078 1.0709.416 2.5648 1.414 4.0587 2.412 1.8674 1.248 3.7348 2.496 4.776 2.607 1.0578.114 3.3997.486 5.3374 1.303zM49.9886 130.506c-4.777-6.012-10.8373-10.062-18.7346-12.775-4.4383-.901-7.9154-.9-7.9154-.184 4.2302-.133 10.0826 2.686 14.2877 4.712.8804.424 1.6886.814 2.3946 1.134 3.2623 1.479 8.1272 5.531 10.3268 7.809-.1043-.213-.224-.446-.3591-.696z" fill="#D9F9F9"/></svg>